<svg id="code375-logo" xmlns="http://www.w3.org/2000/svg" viewBox="0 0 109.56 70.71"><defs><style>.cls-1{fill:#d64c4c;}</style></defs><title>logo</title><path class="cls-1" d="M112.72,37.91c-.3-.7-1-1.5-.7-2.3.1-.2.4-.3.5-.6s0-.9-.1-1.4a17.8,17.8,0,0,0-1.2-2.9,10.27,10.27,0,0,1-.7-2.5,27.41,27.41,0,0,0-.5-2.8c-.2-1-.3-2-.5-2.9a4.53,4.53,0,0,0-1.5-2.1,17.8,17.8,0,0,0-3.1-2.3,11.11,11.11,0,0,0-1.6-.7c-.5-.2-1.5,0-1.4-.7.1-.2.4-.5.5-.7s.3-.6.5-.9c.2-.6.3-1.4-.5-1.6s-1.4.6-1.9,1a6.57,6.57,0,0,1-1.7,1.2c-.9.5-2.6,1-3.2-.1-.3-.5-.5-1.1-.8-1.6-.6-1-1.3-1.9-1.9-2.8a6.92,6.92,0,0,0-3.1-2.5c-1.2-.4-2.4-.7-3.7-1.1-2.2-.7-4.6-1.2-6.7-2.1A32.85,32.85,0,0,0,67,3.61a28.62,28.62,0,0,0-6.4,1.1,10.91,10.91,0,0,0-5.7,2.5,31.35,31.35,0,0,1-5,3.8,33.68,33.68,0,0,1-5.9,2.5c-2.3.7-4.6,1.2-6.9,1.8a18.61,18.61,0,0,1-3.4.4,21.08,21.08,0,0,0-3.5.5c-2,.3-4,1.2-6,1.2a10.41,10.41,0,0,0-5.7,1.3c-.53.32-1.06.66-1.58,1l-.62.4a12.55,12.55,0,0,0-1.7,1.3l-2.1,1.8a5.72,5.72,0,0,0-.7.8,4.89,4.89,0,0,0-.7,1.1c-.2.3-.3.6-.5.9a6.12,6.12,0,0,0-.5,1.2c-.1.4-.2.8-.3,1.3a10,10,0,0,0-.2,1.6,21.75,21.75,0,0,0,.1,2.5,14.92,14.92,0,0,0,.2,2.1c.1,1,.2,2.1.3,3.1a10.87,10.87,0,0,0,.1,1.8,1.27,1.27,0,0,1-.1.6c-.3.1-.4.3-.4.4a3.28,3.28,0,0,1-.6.8l-.7.7a4.35,4.35,0,0,1-.7.4,3.55,3.55,0,0,1-.9.4V43H7a5.78,5.78,0,0,1,1.4-.5c.1,0,.2-.1.4-.1,0,.1-.1.2-.2.3l-.3.3c-.1.2-.3.3-.5.5a2.77,2.77,0,0,1-.9.5,1.85,1.85,0,0,1-.7.2,3.75,3.75,0,0,1-1,.1c.1,0,.3.1.4.1h.9c.2,0,.4-.1.6-.1a5.9,5.9,0,0,0,.8-.4,3.81,3.81,0,0,0,.6-.5,2.19,2.19,0,0,1-.3.5c-.2.2-.3.4-.5.6a1.38,1.38,0,0,0-.3.4,1.76,1.76,0,0,1-.5.4c-.2.1-.4.3-.6.4a6.73,6.73,0,0,1-1.1.7c.1,0,.2-.1.3-.1s.2-.1.3-.1a4.88,4.88,0,0,1,.7-.3l.6-.3a1,1,0,0,0,.5-.4l.3-.3a4.62,4.62,0,0,1,.7-.7,14.8,14.8,0,0,0-.8,1.3,1.21,1.21,0,0,1-.5.5l-.4.4c-.3.2-.5.4-.8.6l-1.4.7H5a.6.6,0,0,0,.4-.1.76.76,0,0,0,.4-.1c.1,0,.3-.1.4-.1s.3-.1.5-.2a.76.76,0,0,1,.4-.2c.2-.1.3-.3.5-.5l.4-.4c0,.1-.1.2-.2.4a1.38,1.38,0,0,1-.3.4c-.1.1-.2.2-.2.3l-.4.4c-.2.2-.4.3-.6.5.1,0,.2-.1.3-.1s.1-.1.2-.1.2-.1.4-.2.2-.1.2-.2l.3-.3c.1-.1.2-.3.3-.4a5.92,5.92,0,0,0,.4-.6c.1-.2.2-.3.2-.4s.1-.2.2-.3.1-.3.2-.4c0,.1-.1.3-.1.4s-.1.3-.1.4-.1.3-.2.5a4.88,4.88,0,0,1-.3.7c-.1.2-.2.3-.3.5a2.18,2.18,0,0,1-.4.5c-.1.1-.2.3-.4.4l-.6.6c-.3.3-.7.6-1,.9l.7-.4a2.19,2.19,0,0,0,.5-.3,1.38,1.38,0,0,0,.4-.3c.1-.1.3-.2.4-.4l.3-.3c.1-.2.3-.3.4-.5a2.19,2.19,0,0,0,.3-.5,2.19,2.19,0,0,0,.3-.5c.1-.1.1-.3.2-.4s.1-.3.2-.4.1-.4.2-.6.1-.3.1-.5.1-.5.2-.8v.5c0,.2,0,.3-.1.4a1.09,1.09,0,0,1-.1.5c-.1.2-.1.4-.2.6-.1,0-.2.1-.2.3s-.2.5-.3.7-.3.5-.5.8a3.13,3.13,0,0,0-.5,1l.6-.6c.1-.1.2-.3.3-.4.2-.3.5-.6.7-.9l.25-.52c-.06.39-.1.78-.14,1.19v0c-.06.59-.11,1.18-.21,1.72A9.39,9.39,0,0,1,8,52c-.5.9-.8,1.8-1.2,2.7a18.41,18.41,0,0,0-.9,2.5c-.39,1.07-1,2-1.4,3.1a6.74,6.74,0,0,0-.14,2.28,5,5,0,0,1-.75,1.82c-.1.24-.44,1.15-.26,1.3s1.1-.25,1.25-.4a4.93,4.93,0,0,1,.14,1.74c-.09.4-.39.75-.47,1.14-.12.59-.09.54.49,1a23.28,23.28,0,0,0,2,1.33,22.6,22.6,0,0,0,2.13,1.23c.28.14.43.32.65.13a1.63,1.63,0,0,0,.28-1.06A10.9,10.9,0,0,0,9.37,69c-.21-.82-.34-1.64-.48-2.48a6.34,6.34,0,0,1,1.64-5.27,11.68,11.68,0,0,1,3.2-2.74c.66-.37,1.4-.58,2-1a9.58,9.58,0,0,1,1.06-.68,4.92,4.92,0,0,0,1-.4c.7-.5,1.2-1.5,1.9-2.1.2-.2,1.6-1.6,2-1.5s.2,1,.2,1.2c-.1.9,1.1,1.8,1.1,2.7,0,1.41.71,2.72,1,4.09s1.23,2.21,2,3.33a3.73,3.73,0,0,1,.56.84c.14.38.13.89.24,1.3a2.68,2.68,0,0,1,.19.64,1.34,1.34,0,0,0,.13.74c.42.71,1-.1,1-.64A2.94,2.94,0,0,1,29,68c.13.34.08.76.22,1.09s.34.46.79.5c.74.09,1.49.1,2.24.14a6.17,6.17,0,0,0,1.95.13c.71-.31-.67-2-1-2.34a19.29,19.29,0,0,1-1.86-2,5.74,5.74,0,0,1-1.54-4.17c.3-3.9,3.2-7.3,4.1-11.1.1-.5,0-.9.1-1.4,0-.3.3-.6.4-.9.3-.5.9-1.7,1.7-1.4.5.2,1,1.1,1.4,1.5a13.15,13.15,0,0,0,2.1,2,12.42,12.42,0,0,0,2.3,1.7,5.64,5.64,0,0,0,1.2.4,8.33,8.33,0,0,0,1.5.4,1.74,1.74,0,0,0,1.5-.5c.2-.1.9-.6.9-.8s-.4-.4-.3-.6.6-.5.9-.6c.8-.2,1.6-.1,2.3-.3a25.82,25.82,0,0,0,2.6-.8,4.54,4.54,0,0,1,4.3,1c3,2.2,3.7,6.2,6.4,8.6.19.19.73.46.78.74s-.1.16-.31.39c-.41.46-.45.72-1,.89a11,11,0,0,0-1.62.66c-.33.16-.84.48-.86.9s.68.42,1.14.42c-.53.91-.75,1.31-1.72,1.7s-.76.94-.61,1.85.3,1.76.5,2.64c.07.3.18,1.42.43,1.61s.77-.14,1-.43a11.12,11.12,0,0,0,1.44-2.18,20.85,20.85,0,0,1,1.49-2.13,11.33,11.33,0,0,1,1.71-1.89A4,4,0,0,1,67.33,63a4.55,4.55,0,0,0,1.22-.37c.29-.14.72-.53,1-.49.71.1.76,1.51.86,2.06a5.3,5.3,0,0,1,0,2.28,12.38,12.38,0,0,0-.2,1.36,2.7,2.7,0,0,0,.4,1.93,2.69,2.69,0,0,0,.9-1.2,3.55,3.55,0,0,1,1,1.8c0,.61-.37,1.48,0,2.06s1.35.53,1.88.66c.94.24,1.88.48,2.82.74.41.12,1.38.63,1.77.37s0-.87-.15-1.23a9.08,9.08,0,0,0-1-2A16.81,16.81,0,0,1,75,64.46a4.73,4.73,0,0,1,.29-1.93,20.82,20.82,0,0,0,.56-2.72,19.39,19.39,0,0,0,.43-2.25c0-.69,0-1.5.7-1.85a20.36,20.36,0,0,1,2.2-.9,41.13,41.13,0,0,0,5.6-2.7,14.55,14.55,0,0,0,4.1-4.1c1.7-2.4,3.6-6.9,7.1-6.4.5.1,1-.2,1.4.1a17.67,17.67,0,0,1,1.7,1.2c1.3,1,2.6,2.6,4.4,2.2a4.93,4.93,0,0,0,2.3-1.1,3.33,3.33,0,0,1,2.1-.9,6.72,6.72,0,0,0,1.2-.6c.4-.2.9-.2,1.3-.4.8-.4,1.3-1.4,1.9-2.1A1.83,1.83,0,0,0,112.72,37.91Zm-100.4,0a21,21,0,0,0-1,2.26l0-.46-.1-1.2v-1.3l-.1-1.5L11,33l-.1-2.4.1-1,.2-1,.5-1.4.5-.9.16-.19a8.41,8.41,0,0,0-.16,1.59c0,.7.3,1.3.3,2a17.65,17.65,0,0,0,0,2.3,7.72,7.72,0,0,1,.2,1.5v.9a2.35,2.35,0,0,0,.2.8A3.75,3.75,0,0,1,12.32,37.91Z" transform="translate(-3.32 -3.61)"/></svg>
